<svg id="bce54b46-d99b-406f-8462-6ee05f0f1c7f" data-name="Réteg 3" xmlns="http://www.w3.org/2000/svg" xmlns:xlink="http://www.w3.org/1999/xlink" viewBox="0 0 1920 233"><defs><pattern id="a176b72b-88e3-48c9-9bc3-1f5baf8fb840" data-name="pepita sima" width="310" height="240" patternTransform="translate(0 -870)" patternUnits="userSpaceOnUse" viewBox="0 0 310 240"><rect width="310" height="240" fill="none"/><rect x="155" y="-20" width="310" height="40" fill="#fff"/><circle cx="178" cy="0.5" r="15" fill="#d9515e"/><circle cx="222" cy="0.5" r="15" fill="#ec8843"/><circle cx="266" cy="0.5" r="15" fill="#ffbe27"/><circle cx="310" cy="0.5" r="15" fill="#a4b950"/><rect x="-155" y="-20" width="310" height="40" fill="#fff"/><circle cy="0.5" r="15" fill="#a4b950"/><circle cx="44" cy="-0.5" r="15" fill="#3fa272"/><circle cx="88" cy="-0.5" r="15" fill="#38b8bc"/><circle cx="132" cy="-0.5" r="15" fill="#637fbb"/><rect y="20" width="310" height="40" fill="#fff"/><circle cx="23" cy="40.5" r="15" fill="#d9515e"/><circle cx="67" cy="40.5" r="15" fill="#ec8843"/><circle cx="111" cy="40.5" r="15" fill="#ffbe27"/><circle cx="155" cy="40.5" r="15" fill="#a4b950"/><circle cx="199" cy="39.5" r="15" fill="#3fa272"/><circle cx="243" cy="39.5" r="15" fill="#38b8bc"/><circle cx="287" cy="39.5" r="15" fill="#637fbb"/>#f15a29<circle cx="178" cy="80.5" r="15" fill="#d9515e"/><circle cx="222" cy="80.5" r="15" fill="#ec8843"/><circle cx="266" cy="80.5" r="15" fill="#ffbe27"/><circle cx="310" cy="80.5" r="15" fill="#a4b950"/><rect x="-155" y="60" width="310" height="40" fill="#fff"/><circle cy="80.5" r="15" fill="#a4b950"/><circle cx="44" cy="79.5" r="15" fill="#3fa272"/><circle cx="88" cy="79.5" r="15" fill="#38b8bc"/><circle cx="132" cy="79.5" r="15" fill="#637fbb"/><rect y="100" width="310" height="40" fill="#fff"/><circle cx="23" cy="120.5" r="15" fill="#d9515e"/><circle cx="67" cy="120.5" r="15" fill="#ec8843"/><circle cx="111" cy="120.5" r="15" fill="#ffbe27"/><circle cx="155" cy="120.5" r="15" fill="#a4b950"/><circle cx="199" cy="119.5" r="15" fill="#3fa272"/><circle cx="243" cy="119.5" r="15" fill="#38b8bc"/><circle cx="287" cy="119.5" r="15" fill="#637fbb"/><rect x="155" y="140" width="310" height="40" fill="#fff"/><circle cx="178" cy="160.5" r="15" fill="#d9515e"/><circle cx="222" cy="160.5" r="15" fill="#ec8843"/><circle cx="266" cy="160.5" r="15" fill="#ffbe27"/><circle cx="310" cy="160.5" r="15" fill="#a4b950"/><rect x="-155" y="140" width="310" height="40" fill="#fff"/><circle cy="160.5" r="15" fill="#a4b950"/><circle cx="44" cy="159.5" r="15" fill="#3fa272"/><circle cx="88" cy="159.5" r="15" fill="#38b8bc"/><circle cx="132" cy="159.5" r="15" fill="#637fbb"/><rect y="180" width="310" height="40" fill="#fff"/><circle cx="23" cy="200.5" r="15" fill="#d9515e"/><circle cx="67" cy="200.5" r="15" fill="#ec8843"/><circle cx="111" cy="200.5" r="15" fill="#ffbe27"/><circle cx="155" cy="200.5" r="15" fill="#a4b950"/><circle cx="199" cy="199.5" r="15" fill="#3fa272"/><circle cx="243" cy="199.5" r="15" fill="#38b8bc"/><circle cx="287" cy="199.5" r="15" fill="#637fbb"/><rect x="155" y="220" width="310" height="40" fill="#fff"/><circle cx="178" cy="240.5" r="15" fill="#d9515e"/><circle cx="222" cy="240.5" r="15" fill="#ec8843"/><circle cx="266" cy="240.5" r="15" fill="#ffbe27"/><circle cx="310" cy="240.5" r="15" fill="#a4b950"/><rect x="-155" y="220" width="310" height="40" fill="#fff"/><circle cy="240.5" r="15" fill="#a4b950"/><circle cx="44" cy="239.5" r="15" fill="#3fa272"/><circle cx="88" cy="239.5" r="15" fill="#38b8bc"/><circle cx="132" cy="239.5" r="15" fill="#637fbb"/></pattern><pattern id="b64c0683-f529-493c-89ab-3b114ce21c62" data-name="pepita sima" width="310" height="240" patternTransform="translate(46.24 -782.99) scale(0.66)" patternUnits="userSpaceOnUse" viewBox="0 0 310 240"><rect width="310" height="240" fill="none"/><rect x="155" y="-20" width="310" height="40" fill="#fff"/><circle cx="178" cy="0.5" r="15" fill="#d9515e"/><circle cx="222" cy="0.5" r="15" fill="#ec8843"/><circle cx="266" cy="0.5" r="15" fill="#ffbe27"/><circle cx="310" cy="0.5" r="15" fill="#a4b950"/><rect x="-155" y="-20" width="310" height="40" fill="#fff"/><circle cy="0.5" r="15" fill="#a4b950"/><circle cx="44" cy="-0.5" r="15" fill="#3fa272"/><circle cx="88" cy="-0.5" r="15" fill="#38b8bc"/><circle cx="132" cy="-0.5" r="15" fill="#637fbb"/><rect y="20" width="310" height="40" fill="#fff"/><circle cx="23" cy="40.5" r="15" fill="#d9515e"/><circle cx="67" cy="40.5" r="15" fill="#ec8843"/><circle cx="111" cy="40.5" r="15" fill="#ffbe27"/><circle cx="155" cy="40.5" r="15" fill="#a4b950"/><circle cx="199" cy="39.5" r="15" fill="#3fa272"/><circle cx="243" cy="39.5" r="15" fill="#38b8bc"/><circle cx="287" cy="39.5" r="15" fill="#637fbb"/>#f15a29<circle cx="178" cy="80.5" r="15" fill="#d9515e"/><circle cx="222" cy="80.5" r="15" fill="#ec8843"/><circle cx="266" cy="80.5" r="15" fill="#ffbe27"/><circle cx="310" cy="80.5" r="15" fill="#a4b950"/><rect x="-155" y="60" width="310" height="40" fill="#fff"/><circle cy="80.5" r="15" fill="#a4b950"/><circle cx="44" cy="79.5" r="15" fill="#3fa272"/><circle cx="88" cy="79.5" r="15" fill="#38b8bc"/><circle cx="132" cy="79.5" r="15" fill="#637fbb"/><rect y="100" width="310" height="40" fill="#fff"/><circle cx="23" cy="120.5" r="15" fill="#d9515e"/><circle cx="67" cy="120.5" r="15" fill="#ec8843"/><circle cx="111" cy="120.5" r="15" fill="#ffbe27"/><circle cx="155" cy="120.5" r="15" fill="#a4b950"/><circle cx="199" cy="119.5" r="15" fill="#3fa272"/><circle cx="243" cy="119.5" r="15" fill="#38b8bc"/><circle cx="287" cy="119.5" r="15" fill="#637fbb"/><rect x="155" y="140" width="310" height="40" fill="#fff"/><circle cx="178" cy="160.5" r="15" fill="#d9515e"/><circle cx="222" cy="160.5" r="15" fill="#ec8843"/><circle cx="266" cy="160.5" r="15" fill="#ffbe27"/><circle cx="310" cy="160.5" r="15" fill="#a4b950"/><rect x="-155" y="140" width="310" height="40" fill="#fff"/><circle cy="160.5" r="15" fill="#a4b950"/><circle cx="44" cy="159.5" r="15" fill="#3fa272"/><circle cx="88" cy="159.5" r="15" fill="#38b8bc"/><circle cx="132" cy="159.5" r="15" fill="#637fbb"/><rect y="180" width="310" height="40" fill="#fff"/><circle cx="23" cy="200.5" r="15" fill="#d9515e"/><circle cx="67" cy="200.5" r="15" fill="#ec8843"/><circle cx="111" cy="200.5" r="15" fill="#ffbe27"/><circle cx="155" cy="200.5" r="15" fill="#a4b950"/><circle cx="199" cy="199.5" r="15" fill="#3fa272"/><circle cx="243" cy="199.5" r="15" fill="#38b8bc"/><circle cx="287" cy="199.5" r="15" fill="#637fbb"/><rect x="155" y="220" width="310" height="40" fill="#fff"/><circle cx="178" cy="240.5" r="15" fill="#d9515e"/><circle cx="222" cy="240.5" r="15" fill="#ec8843"/><circle cx="266" cy="240.5" r="15" fill="#ffbe27"/><circle cx="310" cy="240.5" r="15" fill="#a4b950"/><rect x="-155" y="220" width="310" height="40" fill="#fff"/><circle cy="240.5" r="15" fill="#a4b950"/><circle cx="44" cy="239.5" r="15" fill="#3fa272"/><circle cx="88" cy="239.5" r="15" fill="#38b8bc"/><circle cx="132" cy="239.5" r="15" fill="#637fbb"/></pattern><pattern id="b581ca0c-3747-496e-a637-46451431e1a0" data-name="pepita sima" width="310" height="240" patternTransform="translate(32.88 -409.23) scale(0.5)" patternUnits="userSpaceOnUse" viewBox="0 0 310 240"><rect width="310" height="240" fill="none"/><rect x="155" y="-20" width="310" height="40" fill="#fff"/><circle cx="178" cy="0.5" r="15" fill="#d9515e"/><circle cx="222" cy="0.5" r="15" fill="#ec8843"/><circle cx="266" cy="0.5" r="15" fill="#ffbe27"/><circle cx="310" cy="0.5" r="15" fill="#a4b950"/><rect x="-155" y="-20" width="310" height="40" fill="#fff"/><circle cy="0.5" r="15" fill="#a4b950"/><circle cx="44" cy="-0.5" r="15" fill="#3fa272"/><circle cx="88" cy="-0.5" r="15" fill="#38b8bc"/><circle cx="132" cy="-0.5" r="15" fill="#637fbb"/><rect y="20" width="310" height="40" fill="#fff"/><circle cx="23" cy="40.5" r="15" fill="#d9515e"/><circle cx="67" cy="40.5" r="15" fill="#ec8843"/><circle cx="111" cy="40.5" r="15" fill="#ffbe27"/><circle cx="155" cy="40.5" r="15" fill="#a4b950"/><circle cx="199" cy="39.5" r="15" fill="#3fa272"/><circle cx="243" cy="39.5" r="15" fill="#38b8bc"/><circle cx="287" cy="39.5" r="15" fill="#637fbb"/>#f15a29<circle cx="178" cy="80.5" r="15" fill="#d9515e"/><circle cx="222" cy="80.5" r="15" fill="#ec8843"/><circle cx="266" cy="80.5" r="15" fill="#ffbe27"/><circle cx="310" cy="80.5" r="15" fill="#a4b950"/><rect x="-155" y="60" width="310" height="40" fill="#fff"/><circle cy="80.5" r="15" fill="#a4b950"/><circle cx="44" cy="79.5" r="15" fill="#3fa272"/><circle cx="88" cy="79.5" r="15" fill="#38b8bc"/><circle cx="132" cy="79.5" r="15" fill="#637fbb"/><rect y="100" width="310" height="40" fill="#fff"/><circle cx="23" cy="120.5" r="15" fill="#d9515e"/><circle cx="67" cy="120.5" r="15" fill="#ec8843"/><circle cx="111" cy="120.5" r="15" fill="#ffbe27"/><circle cx="155" cy="120.5" r="15" fill="#a4b950"/><circle cx="199" cy="119.5" r="15" fill="#3fa272"/><circle cx="243" cy="119.5" r="15" fill="#38b8bc"/><circle cx="287" cy="119.5" r="15" fill="#637fbb"/><rect x="155" y="140" width="310" height="40" fill="#fff"/><circle cx="178" cy="160.5" r="15" fill="#d9515e"/><circle cx="222" cy="160.5" r="15" fill="#ec8843"/><circle cx="266" cy="160.5" r="15" fill="#ffbe27"/><circle cx="310" cy="160.5" r="15" fill="#a4b950"/><rect x="-155" y="140" width="310" height="40" fill="#fff"/><circle cy="160.5" r="15" fill="#a4b950"/><circle cx="44" cy="159.5" r="15" fill="#3fa272"/><circle cx="88" cy="159.5" r="15" fill="#38b8bc"/><circle cx="132" cy="159.5" r="15" fill="#637fbb"/><rect y="180" width="310" height="40" fill="#fff"/><circle cx="23" cy="200.5" r="15" fill="#d9515e"/><circle cx="67" cy="200.5" r="15" fill="#ec8843"/><circle cx="111" cy="200.5" r="15" fill="#ffbe27"/><circle cx="155" cy="200.5" r="15" fill="#a4b950"/><circle cx="199" cy="199.5" r="15" fill="#3fa272"/><circle cx="243" cy="199.5" r="15" fill="#38b8bc"/><circle cx="287" cy="199.5" r="15" fill="#637fbb"/><rect x="155" y="220" width="310" height="40" fill="#fff"/><circle cx="178" cy="240.5" r="15" fill="#d9515e"/><circle cx="222" cy="240.5" r="15" fill="#ec8843"/><circle cx="266" cy="240.5" r="15" fill="#ffbe27"/><circle cx="310" cy="240.5" r="15" fill="#a4b950"/><rect x="-155" y="220" width="310" height="40" fill="#fff"/><circle cy="240.5" r="15" fill="#a4b950"/><circle cx="44" cy="239.5" r="15" fill="#3fa272"/><circle cx="88" cy="239.5" r="15" fill="#38b8bc"/><circle cx="132" cy="239.5" r="15" fill="#637fbb"/></pattern></defs><title>lepedo</title><g id="f4ea702f-62d1-4ed0-8ecc-fb9c98d1a9a3" data-name="1"><rect y="133" width="1920" height="100" fill="url(#a176b72b-88e3-48c9-9bc3-1f5baf8fb840)"/></g><g id="ae907806-61f9-4f0c-ad29-19ec986050e1" data-name="2"><rect y="51" width="1920" height="100" fill="url(#b64c0683-f529-493c-89ab-3b114ce21c62)"/></g><g id="fa0b3132-6258-4824-bb41-fa7bbbc6ec1e" data-name="3"><rect width="1920" height="100" fill="url(#b581ca0c-3747-496e-a637-46451431e1a0)"/></g></svg>