<svg id="bfac45f9-0931-4ded-83b0-bcefef9665ff" data-name="Réteg 3" xmlns="http://www.w3.org/2000/svg" xmlns:xlink="http://www.w3.org/1999/xlink" viewBox="0 0 1920 240"><defs><pattern id="b4cc1cb6-99ec-451c-bc87-a1716b808965" data-name="pepita sima" width="310" height="240" patternTransform="translate(0 -863)" patternUnits="userSpaceOnUse" viewBox="0 0 310 240"><rect width="310" height="240" fill="none"/><rect x="155" y="-20" width="310" height="40" fill="#fff"/><circle cx="178" cy="0.5" r="15" fill="#d9515e"/><circle cx="222" cy="0.5" r="15" fill="#ec8843"/><circle cx="266" cy="0.5" r="15" fill="#ffbe27"/><circle cx="310" cy="0.5" r="15" fill="#a4b950"/><rect x="-155" y="-20" width="310" height="40" fill="#fff"/><circle cy="0.5" r="15" fill="#a4b950"/><circle cx="44" cy="-0.5" r="15" fill="#3fa272"/><circle cx="88" cy="-0.5" r="15" fill="#38b8bc"/><circle cx="132" cy="-0.5" r="15" fill="#637fbb"/><rect y="20" width="310" height="40" fill="#fff"/><circle cx="23" cy="40.5" r="15" fill="#d9515e"/><circle cx="67" cy="40.5" r="15" fill="#ec8843"/><circle cx="111" cy="40.5" r="15" fill="#ffbe27"/><circle cx="155" cy="40.5" r="15" fill="#a4b950"/><circle cx="199" cy="39.5" r="15" fill="#3fa272"/><circle cx="243" cy="39.5" r="15" fill="#38b8bc"/><circle cx="287" cy="39.5" r="15" fill="#637fbb"/><rect x="155" y="60" width="310" height="40" fill="#fff"/><circle cx="178" cy="80.5" r="15" fill="#d9515e"/><circle cx="222" cy="80.5" r="15" fill="#ec8843"/><circle cx="266" cy="80.5" r="15" fill="#ffbe27"/><circle cx="310" cy="80.5" r="15" fill="#a4b950"/><rect x="-155" y="60" width="310" height="40" fill="#fff"/><circle cy="80.5" r="15" fill="#a4b950"/><circle cx="44" cy="79.5" r="15" fill="#3fa272"/><circle cx="88" cy="79.5" r="15" fill="#38b8bc"/><circle cx="132" cy="79.5" r="15" fill="#637fbb"/><rect y="100" width="310" height="40" fill="#fff"/><circle cx="23" cy="120.5" r="15" fill="#d9515e"/><circle cx="67" cy="120.5" r="15" fill="#ec8843"/><circle cx="111" cy="120.5" r="15" fill="#ffbe27"/><circle cx="155" cy="120.5" r="15" fill="#a4b950"/><circle cx="199" cy="119.5" r="15" fill="#3fa272"/><circle cx="243" cy="119.5" r="15" fill="#38b8bc"/><circle cx="287" cy="119.5" r="15" fill="#637fbb"/><rect x="155" y="140" width="310" height="40" fill="#fff"/><circle cx="178" cy="160.5" r="15" fill="#d9515e"/><circle cx="222" cy="160.5" r="15" fill="#ec8843"/><circle cx="266" cy="160.5" r="15" fill="#ffbe27"/><circle cx="310" cy="160.5" r="15" fill="#a4b950"/><rect x="-155" y="140" width="310" height="40" fill="#fff"/><circle cy="160.5" r="15" fill="#a4b950"/><circle cx="44" cy="159.5" r="15" fill="#3fa272"/><circle cx="88" cy="159.5" r="15" fill="#38b8bc"/><circle cx="132" cy="159.5" r="15" fill="#637fbb"/><rect y="180" width="310" height="40" fill="#fff"/><circle cx="23" cy="200.5" r="15" fill="#d9515e"/><circle cx="67" cy="200.5" r="15" fill="#ec8843"/><circle cx="111" cy="200.5" r="15" fill="#ffbe27"/><circle cx="155" cy="200.5" r="15" fill="#a4b950"/><circle cx="199" cy="199.5" r="15" fill="#3fa272"/><circle cx="243" cy="199.5" r="15" fill="#38b8bc"/><circle cx="287" cy="199.5" r="15" fill="#637fbb"/><rect x="155" y="220" width="310" height="40" fill="#fff"/><circle cx="178" cy="240.5" r="15" fill="#d9515e"/><circle cx="222" cy="240.5" r="15" fill="#ec8843"/><circle cx="266" cy="240.5" r="15" fill="#ffbe27"/><circle cx="310" cy="240.5" r="15" fill="#a4b950"/><rect x="-155" y="220" width="310" height="40" fill="#fff"/><circle cy="240.5" r="15" fill="#a4b950"/><circle cx="44" cy="239.5" r="15" fill="#3fa272"/><circle cx="88" cy="239.5" r="15" fill="#38b8bc"/><circle cx="132" cy="239.5" r="15" fill="#637fbb"/></pattern><pattern id="bd51a9a4-b110-4a63-ad62-4ea426a06ed6" data-name="pepita sima" width="310" height="240" patternTransform="translate(46.24 -775.99) scale(0.66)" patternUnits="userSpaceOnUse" viewBox="0 0 310 240"><rect width="310" height="240" fill="none"/><rect x="155" y="-20" width="310" height="40" fill="#fff"/><circle cx="178" cy="0.5" r="15" fill="#d9515e"/><circle cx="222" cy="0.5" r="15" fill="#ec8843"/><circle cx="266" cy="0.5" r="15" fill="#ffbe27"/><circle cx="310" cy="0.5" r="15" fill="#a4b950"/><rect x="-155" y="-20" width="310" height="40" fill="#fff"/><circle cy="0.5" r="15" fill="#a4b950"/><circle cx="44" cy="-0.5" r="15" fill="#3fa272"/><circle cx="88" cy="-0.5" r="15" fill="#38b8bc"/><circle cx="132" cy="-0.5" r="15" fill="#637fbb"/><rect y="20" width="310" height="40" fill="#fff"/><circle cx="23" cy="40.5" r="15" fill="#d9515e"/><circle cx="67" cy="40.5" r="15" fill="#ec8843"/><circle cx="111" cy="40.5" r="15" fill="#ffbe27"/><circle cx="155" cy="40.5" r="15" fill="#a4b950"/><circle cx="199" cy="39.5" r="15" fill="#3fa272"/><circle cx="243" cy="39.5" r="15" fill="#38b8bc"/><circle cx="287" cy="39.5" r="15" fill="#637fbb"/><rect x="155" y="60" width="310" height="40" fill="#fff"/><circle cx="178" cy="80.5" r="15" fill="#d9515e"/><circle cx="222" cy="80.5" r="15" fill="#ec8843"/><circle cx="266" cy="80.5" r="15" fill="#ffbe27"/><circle cx="310" cy="80.5" r="15" fill="#a4b950"/><rect x="-155" y="60" width="310" height="40" fill="#fff"/><circle cy="80.5" r="15" fill="#a4b950"/><circle cx="44" cy="79.5" r="15" fill="#3fa272"/><circle cx="88" cy="79.5" r="15" fill="#38b8bc"/><circle cx="132" cy="79.5" r="15" fill="#637fbb"/><rect y="100" width="310" height="40" fill="#fff"/><circle cx="23" cy="120.5" r="15" fill="#d9515e"/><circle cx="67" cy="120.5" r="15" fill="#ec8843"/><circle cx="111" cy="120.5" r="15" fill="#ffbe27"/><circle cx="155" cy="120.5" r="15" fill="#a4b950"/><circle cx="199" cy="119.5" r="15" fill="#3fa272"/><circle cx="243" cy="119.5" r="15" fill="#38b8bc"/><circle cx="287" cy="119.5" r="15" fill="#637fbb"/><rect x="155" y="140" width="310" height="40" fill="#fff"/><circle cx="178" cy="160.5" r="15" fill="#d9515e"/><circle cx="222" cy="160.5" r="15" fill="#ec8843"/><circle cx="266" cy="160.5" r="15" fill="#ffbe27"/><circle cx="310" cy="160.5" r="15" fill="#a4b950"/><rect x="-155" y="140" width="310" height="40" fill="#fff"/><circle cy="160.5" r="15" fill="#a4b950"/><circle cx="44" cy="159.5" r="15" fill="#3fa272"/><circle cx="88" cy="159.5" r="15" fill="#38b8bc"/><circle cx="132" cy="159.5" r="15" fill="#637fbb"/><rect y="180" width="310" height="40" fill="#fff"/><circle cx="23" cy="200.5" r="15" fill="#d9515e"/><circle cx="67" cy="200.5" r="15" fill="#ec8843"/><circle cx="111" cy="200.5" r="15" fill="#ffbe27"/><circle cx="155" cy="200.5" r="15" fill="#a4b950"/><circle cx="199" cy="199.5" r="15" fill="#3fa272"/><circle cx="243" cy="199.5" r="15" fill="#38b8bc"/><circle cx="287" cy="199.5" r="15" fill="#637fbb"/><rect x="155" y="220" width="310" height="40" fill="#fff"/><circle cx="178" cy="240.5" r="15" fill="#d9515e"/><circle cx="222" cy="240.5" r="15" fill="#ec8843"/><circle cx="266" cy="240.5" r="15" fill="#ffbe27"/><circle cx="310" cy="240.5" r="15" fill="#a4b950"/><rect x="-155" y="220" width="310" height="40" fill="#fff"/><circle cy="240.5" r="15" fill="#a4b950"/><circle cx="44" cy="239.5" r="15" fill="#3fa272"/><circle cx="88" cy="239.5" r="15" fill="#38b8bc"/><circle cx="132" cy="239.5" r="15" fill="#637fbb"/></pattern><pattern id="b5066e1c-ce85-43a9-8a5c-559c7fd6c307" data-name="pepita sima" width="310" height="240" patternTransform="translate(32.88 -402.23) scale(0.5)" patternUnits="userSpaceOnUse" viewBox="0 0 310 240"><rect width="310" height="240" fill="none"/><rect x="155" y="-20" width="310" height="40" fill="#fff"/><circle cx="178" cy="0.5" r="15" fill="#d9515e"/><circle cx="222" cy="0.5" r="15" fill="#ec8843"/><circle cx="266" cy="0.5" r="15" fill="#ffbe27"/><circle cx="310" cy="0.5" r="15" fill="#a4b950"/><rect x="-155" y="-20" width="310" height="40" fill="#fff"/><circle cy="0.5" r="15" fill="#a4b950"/><circle cx="44" cy="-0.5" r="15" fill="#3fa272"/><circle cx="88" cy="-0.5" r="15" fill="#38b8bc"/><circle cx="132" cy="-0.5" r="15" fill="#637fbb"/><rect y="20" width="310" height="40" fill="#fff"/><circle cx="23" cy="40.5" r="15" fill="#d9515e"/><circle cx="67" cy="40.5" r="15" fill="#ec8843"/><circle cx="111" cy="40.5" r="15" fill="#ffbe27"/><circle cx="155" cy="40.5" r="15" fill="#a4b950"/><circle cx="199" cy="39.5" r="15" fill="#3fa272"/><circle cx="243" cy="39.5" r="15" fill="#38b8bc"/><circle cx="287" cy="39.5" r="15" fill="#637fbb"/><rect x="155" y="60" width="310" height="40" fill="#fff"/><circle cx="178" cy="80.5" r="15" fill="#d9515e"/><circle cx="222" cy="80.5" r="15" fill="#ec8843"/><circle cx="266" cy="80.5" r="15" fill="#ffbe27"/><circle cx="310" cy="80.5" r="15" fill="#a4b950"/><rect x="-155" y="60" width="310" height="40" fill="#fff"/><circle cy="80.5" r="15" fill="#a4b950"/><circle cx="44" cy="79.5" r="15" fill="#3fa272"/><circle cx="88" cy="79.5" r="15" fill="#38b8bc"/><circle cx="132" cy="79.5" r="15" fill="#637fbb"/><rect y="100" width="310" height="40" fill="#fff"/><circle cx="23" cy="120.5" r="15" fill="#d9515e"/><circle cx="67" cy="120.5" r="15" fill="#ec8843"/><circle cx="111" cy="120.5" r="15" fill="#ffbe27"/><circle cx="155" cy="120.5" r="15" fill="#a4b950"/><circle cx="199" cy="119.5" r="15" fill="#3fa272"/><circle cx="243" cy="119.5" r="15" fill="#38b8bc"/><circle cx="287" cy="119.5" r="15" fill="#637fbb"/><rect x="155" y="140" width="310" height="40" fill="#fff"/><circle cx="178" cy="160.5" r="15" fill="#d9515e"/><circle cx="222" cy="160.5" r="15" fill="#ec8843"/><circle cx="266" cy="160.5" r="15" fill="#ffbe27"/><circle cx="310" cy="160.5" r="15" fill="#a4b950"/><rect x="-155" y="140" width="310" height="40" fill="#fff"/><circle cy="160.5" r="15" fill="#a4b950"/><circle cx="44" cy="159.5" r="15" fill="#3fa272"/><circle cx="88" cy="159.5" r="15" fill="#38b8bc"/><circle cx="132" cy="159.5" r="15" fill="#637fbb"/><rect y="180" width="310" height="40" fill="#fff"/><circle cx="23" cy="200.5" r="15" fill="#d9515e"/><circle cx="67" cy="200.5" r="15" fill="#ec8843"/><circle cx="111" cy="200.5" r="15" fill="#ffbe27"/><circle cx="155" cy="200.5" r="15" fill="#a4b950"/><circle cx="199" cy="199.5" r="15" fill="#3fa272"/><circle cx="243" cy="199.5" r="15" fill="#38b8bc"/><circle cx="287" cy="199.5" r="15" fill="#637fbb"/><rect x="155" y="220" width="310" height="40" fill="#fff"/><circle cx="178" cy="240.5" r="15" fill="#d9515e"/><circle cx="222" cy="240.5" r="15" fill="#ec8843"/><circle cx="266" cy="240.5" r="15" fill="#ffbe27"/><circle cx="310" cy="240.5" r="15" fill="#a4b950"/><rect x="-155" y="220" width="310" height="40" fill="#fff"/><circle cy="240.5" r="15" fill="#a4b950"/><circle cx="44" cy="239.5" r="15" fill="#3fa272"/><circle cx="88" cy="239.5" r="15" fill="#38b8bc"/><circle cx="132" cy="239.5" r="15" fill="#637fbb"/></pattern><linearGradient id="b0566da4-cc90-40ad-ba3e-2a5c6d09674d" x1="960" y1="235" x2="960" gradientUnits="userSpaceOnUse"><stop offset="0" stop-color="#fff" stop-opacity="0"/><stop offset="1" stop-color="#fff"/></linearGradient></defs><title>lepedo2</title><g id="b9736057-8643-42e9-8d3d-c169bf60cbf3" data-name="1"><rect y="140" width="1920" height="100" fill="url(#b4cc1cb6-99ec-451c-bc87-a1716b808965)"/></g><g id="beada7dc-4c01-46bd-8e1f-a5cb685aa08f" data-name="2"><rect y="58" width="1920" height="100" fill="url(#bd51a9a4-b110-4a63-ad62-4ea426a06ed6)"/></g><g id="a01e7800-36bf-4cb2-86e6-1dec83f745e6" data-name="3"><rect y="7" width="1920" height="100" fill="url(#b5066e1c-ce85-43a9-8a5c-559c7fd6c307)"/></g><rect width="1920" height="235" fill="url(#b0566da4-cc90-40ad-ba3e-2a5c6d09674d)"/></svg>